<svg width="20" height="16" viewBox="0 0 20 16" fill="none" xmlns="http://www.w3.org/2000/svg">
<path id="Vector" d="M13.8987 14.8501C13.8282 14.7813 13.7718 14.6993 13.733 14.6087C13.6941 14.5181 13.6735 14.4208 13.6723 14.3222C13.6711 14.2237 13.6893 14.1258 13.726 14.0343C13.7626 13.9428 13.8169 13.8595 13.8858 13.7889L17.0665 10.5305L9.87738 10.6183C7.29252 10.6471 4.80179 9.64936 2.95171 7.84393C1.10164 6.0385 0.0433433 3.57287 0.00904683 0.988077C0.00661779 0.78918 0.0833 0.597464 0.222224 0.455104C0.361147 0.312745 0.550935 0.231404 0.749832 0.228974C0.948729 0.226545 1.14045 0.303228 1.28281 0.442152C1.42516 0.581076 1.50651 0.770862 1.50893 0.96976C1.53813 3.15684 2.43366 5.24304 3.99907 6.77067C5.56448 8.29831 7.67192 9.14263 9.85906 9.1184L17.0482 9.0306L13.7888 5.85079C13.6464 5.71179 13.565 5.5219 13.5626 5.32289C13.5601 5.12388 13.6369 4.93206 13.7759 4.78962C13.9149 4.64718 14.1048 4.5658 14.3038 4.56337C14.5028 4.56094 14.6946 4.63766 14.837 4.77666L19.3917 9.22137C19.4622 9.29017 19.5186 9.37221 19.5574 9.46279C19.5963 9.55337 19.6169 9.65072 19.6181 9.74927C19.6193 9.84783 19.6011 9.94565 19.5644 10.0372C19.5278 10.1287 19.4735 10.212 19.4046 10.2825L14.9599 14.8372C14.8911 14.9077 14.8091 14.9641 14.7185 15.0029C14.6279 15.0418 14.5306 15.0624 14.432 15.0636C14.3335 15.0648 14.2356 15.0466 14.1441 15.0099C14.0526 14.9733 13.9692 14.919 13.8987 14.8501Z" fill="black"/>
</svg>
